<svg width="24" height="24" viewBox="0 0 24 24" fill="none" xmlns="http://www.w3.org/2000/svg">
<path d="M19.6105 2.9637C20.1007 2.47975 20.8906 2.48339 21.3762 2.97249C21.8625 3.46249 21.8593 4.25474 21.3693 4.74104L20.4885 3.85334C21.3101 4.68121 21.365 4.73706 21.3684 4.74104V4.74202L21.3664 4.74299C21.3654 4.74399 21.3647 4.74564 21.3635 4.7469C21.3608 4.74952 21.3575 4.75296 21.3537 4.75667C21.346 4.76412 21.3356 4.77338 21.3234 4.78499C21.299 4.80817 21.2658 4.83964 21.2238 4.87776C21.1397 4.95407 21.0203 5.0586 20.8693 5.18147C20.5684 5.4264 20.135 5.74982 19.5949 6.07307C18.528 6.71158 16.9648 7.39626 15.1359 7.39631C13.2616 7.39632 11.9659 6.6684 10.9367 6.08967C9.8951 5.50398 9.16754 5.10338 8.11737 5.10334C7.04416 5.10335 6.14355 5.53684 5.47968 6.01448C5.15135 6.25072 4.89625 6.48756 4.72577 6.66194C4.64105 6.74861 4.57847 6.81863 4.54023 6.86311C4.52118 6.88526 4.50785 6.90078 4.50116 6.90901H4.50019L4.50116 6.90999L4.50019 6.91096C4.50021 6.91093 4.50023 6.91083 4.49921 6.90999L4.49628 6.91584C4.07361 7.45751 3.29201 7.55671 2.74726 7.13655C2.20088 6.71499 2.09945 5.93019 2.52069 5.38362L3.34003 6.01448C2.54291 5.39959 2.52194 5.38342 2.52167 5.38264L2.52362 5.37971C2.52461 5.37844 2.52632 5.37735 2.52753 5.37581C2.52996 5.37269 2.533 5.36828 2.53632 5.36409C2.54296 5.3557 2.55162 5.34525 2.56171 5.33284C2.5823 5.3075 2.60994 5.27368 2.64472 5.23323C2.71427 5.15233 2.81238 5.04306 2.93769 4.91487C3.18751 4.6593 3.55142 4.32213 4.01972 3.98518C4.94965 3.31611 6.35319 2.60335 8.11737 2.60334C9.90436 2.60338 11.1647 3.35004 12.1623 3.91096C13.1724 4.47891 13.9681 4.89632 15.1359 4.89631C16.3488 4.89626 17.4618 4.43557 18.3107 3.92756C18.7285 3.67751 19.0638 3.42709 19.2912 3.24202C19.4044 3.14991 19.49 3.0753 19.5441 3.0262C19.5709 3.00189 19.5898 2.98385 19.6008 2.97346C19.6058 2.96868 19.6091 2.96512 19.6105 2.9637Z" fill="#010101"/>
<path d="M20.5 11.8967C21.1904 11.8967 21.75 12.4564 21.75 13.1467C21.75 13.8371 21.1904 14.3967 20.5 14.3967H3.5C2.80964 14.3967 2.25 13.8371 2.25 13.1467C2.25 12.4564 2.80964 11.8967 3.5 11.8967H20.5Z" fill="#010101"/>
<path d="M20.5 18.8968C21.1904 18.8968 21.75 19.4565 21.75 20.1468C21.75 20.8372 21.1904 21.3968 20.5 21.3968H3.5C2.80964 21.3968 2.25 20.8372 2.25 20.1468C2.25 19.4565 2.80964 18.8968 3.5 18.8968H20.5Z" fill="#010101"/>
</svg>
