<svg width="21" height="20" viewBox="0 0 21 20" fill="none" xmlns="http://www.w3.org/2000/svg">
<path d="M9.08994 16.3027C13.4198 16.3027 16.9299 12.933 16.9299 8.77634C16.9299 4.61966 13.4198 1.25 9.08994 1.25C4.76006 1.25 1.25 4.61966 1.25 8.77634C1.25 12.933 4.76006 16.3027 9.08994 16.3027Z" stroke="#030303" stroke-width="2.5"/>
<path d="M9.08994 16.3027C13.4198 16.3027 16.9299 12.933 16.9299 8.77634C16.9299 4.61966 13.4198 1.25 9.08994 1.25C4.76006 1.25 1.25 4.61966 1.25 8.77634C1.25 12.933 4.76006 16.3027 9.08994 16.3027Z" stroke="#010101" stroke-width="2.5"/>
<path d="M18.8899 18.1843L14.627 14.0918" stroke="#030303" stroke-width="2.5" stroke-linecap="round" stroke-linejoin="round"/>
<path d="M18.8899 18.1843L14.627 14.0918" stroke="#010101" stroke-width="2.5" stroke-linecap="round" stroke-linejoin="round"/>
</svg>
