<svg width="24" height="24" viewBox="0 0 24 24" fill="none" xmlns="http://www.w3.org/2000/svg">
<path d="M10.9342 18.8169C15.2641 18.8169 18.7741 15.3068 18.7741 10.9769C18.7741 6.64697 15.2641 3.13689 10.9342 3.13689C6.6043 3.13689 3.09424 6.64697 3.09424 10.9769C3.09424 15.3068 6.6043 18.8169 10.9342 18.8169Z" stroke="#030303" stroke-width="2.5"/>
<path d="M10.9342 18.8169C15.2641 18.8169 18.7741 15.3068 18.7741 10.9769C18.7741 6.64697 15.2641 3.13689 10.9342 3.13689C6.6043 3.13689 3.09424 6.64697 3.09424 10.9769C3.09424 15.3068 6.6043 18.8169 10.9342 18.8169Z" stroke="#010101" stroke-width="2.5"/>
<path d="M20.9055 20.8631L16.6426 16.7707" stroke="#030303" stroke-width="2.5" stroke-linecap="round" stroke-linejoin="round"/>
<path d="M20.9055 20.8631L16.6426 16.7707" stroke="#010101" stroke-width="2.5" stroke-linecap="round" stroke-linejoin="round"/>
</svg>
