<?xml version="1.0" encoding="UTF-8" standalone="no"?>
<svg
   xmlns:dc="http://purl.org/dc/elements/1.1/"
   xmlns:cc="http://creativecommons.org/ns#"
   xmlns:rdf="http://www.w3.org/1999/02/22-rdf-syntax-ns#"
   xmlns:svg="http://www.w3.org/2000/svg"
   xmlns="http://www.w3.org/2000/svg"
   xmlns:sodipodi="http://sodipodi.sourceforge.net/DTD/sodipodi-0.dtd"
   xmlns:inkscape="http://www.inkscape.org/namespaces/inkscape"
   version="1.1"
   id="Layer_1"
   x="0px"
   y="0px"
   width="799"
   height="233"
   viewBox="0 0 799 233"
   enable-background="new 0 0 1191 1684"
   xml:space="preserve">
<path
   style="fill:#00678f"
   inkscape:connector-curvature="0"
   d="m 401.11346,17.452686 9.90848,22.348056 0.67176,1.739382 c 0.39586,-1.403501 0.53981,-1.787365 1.07962,-3.106896 l 9.36867,-20.980542 5.92589,0 -16.37418,34.871604 -1.6914,0 -16.42216,-34.871604 7.53332,0"
   id="path85" /><rect
   style="fill:#00678f"
   x="-51.74839"
   y="446.91306"
   width="34.295811"
   height="6.9575267"
   id="rect87"
   transform="matrix(0,-1,1,0,0,0)" /><polyline
   style="fill:#00678f"
   points="392.672,102.856 392.672,103.435 390.213,103.435 390.213,104.727 389.813,104.727   389.813,102.856 392.672,102.856 "
   id="polyline89"
   transform="matrix(0,-11.995736,11.995736,0,-755.02358,4727.7224)" /><polyline
   style="fill:#00678f"
   points="392.672,106.367 392.672,106.947 390.213,106.947 390.213,108.239 389.813,108.239   389.813,106.367 392.672,106.367 "
   id="polyline91"
   transform="matrix(0,-11.995736,11.995736,0,-755.02358,4727.7224)" /><polyline
   style="fill:#00678f"
   points="392.676,109.879 392.676,111.669 392.283,111.669 392.283,110.457 391.489,110.457   391.489,111.519 391.096,111.519 391.096,110.457 390.201,110.457 390.201,111.839 389.813,111.839 389.813,109.879   392.676,109.879 "
   id="polyline93"
   transform="matrix(0,-11.995736,11.995736,0,-755.02358,4727.7224)" /><path
   style="fill:#00678f"
   inkscape:connector-curvature="0"
   d="m 636.07394,17.332728 12.34362,0 c 3.25084,0 8.82886,0.09597 13.11133,4.282478 3.15488,3.058913 4.90626,8.061135 4.90626,12.823442 0,4.714324 -1.59543,9.332683 -4.90626,12.679493 -3.98258,3.982584 -8.39701,4.510397 -14.3349,4.510397 l -11.12005,0 0,-34.29581 m 11.70784,29.593481 c 2.91497,0 5.87791,-0.635774 7.92918,-2.723032 2.51911,-2.579083 3.3828,-6.213791 3.3828,-9.812512 0,-5.494047 -2.23121,-8.984806 -4.55838,-10.592235 -2.91496,-1.991292 -6.7536,-1.943309 -11.51591,-1.847343 l 0,24.975122 4.76231,0 z"
   id="path95" /><polyline
   style="fill:#00678f"
   points="392.676,120.323 392.676,122.114 392.283,122.114 392.283,120.902 391.489,120.902   391.489,121.964 391.096,121.964 391.096,120.902 390.201,120.902 390.201,122.284 389.813,122.284 389.813,120.323   392.676,120.323 "
   id="polyline97"
   transform="matrix(0,-11.995736,11.995736,0,-755.02358,4727.7224)" /><path
   style="fill:#006890"
   inkscape:connector-curvature="0"
   d="m 314.24034,226.83826 -77.3485,0 0,-209.253621 74.8294,0 c 34.61969,0 58.62316,20.87258 58.62316,55.840151 0,22.048163 -12.54754,39.382 -29.30558,45.8477 18.97725,7.34139 32.38848,24.68723 32.38848,49.67435 0,37.89453 -24.01546,57.89142 -59.18696,57.89142 m -4.19851,-189.268725 -51.92954,0 0,72.586195 51.92954,0 c 22.06016,0 39.09411,-11.455924 39.09411,-36.443042 0,-24.975123 -17.03395,-36.143153 -39.09411,-36.143153 z m 2.24321,92.571095 -54.17275,0 0,76.70074 54.17275,0 c 24.56726,0 39.92181,-14.97068 39.92181,-38.48233 0,-23.51164 -15.35455,-38.21841 -39.92181,-38.21841 z"
   id="path99" /><path
   style="fill:#006890"
   inkscape:connector-curvature="0"
   d="m 495.73583,160.11797 c 0,31.75272 14.22694,49.96224 40.48561,49.96224 15.90634,0 25.11907,-4.99022 35.9992,-16.45815 l 13.68714,12.64351 c -13.96304,14.68278 -26.79848,22.33606 -50.25014,22.33606 -36.2991,0 -60.02667,-22.92385 -60.02667,-74.07367 0,-46.72339 21.48437,-74.049677 56.39196,-74.049677 35.45939,0 56.40395,27.038387 56.40395,69.947137 l 0,9.69255 -92.69105,0 m 68.39968,-39.95779 c -5.30211,-13.2433 -17.59774,-21.760268 -32.11258,-21.760268 -14.51484,0 -26.81047,8.516968 -32.10059,21.760268 -3.07091,7.92918 -3.63471,12.33161 -4.18651,24.08744 l 72.5862,0 c -0.5638,-11.75583 -1.11561,-16.15826 -4.18652,-24.08744 z"
   id="path101" /><path
   style="fill:#006890"
   inkscape:connector-curvature="0"
   d="m 478.85783,89.343132 c -8.79288,-6.513685 -15.35454,-7.785233 -26.95442,-7.785233 -15.90635,0 -30.98499,7.34139 -38.51831,19.397101 l 0,-17.633728 -20.11685,0 0,144.596598 20.11685,0 0,-88.76844 c 0,-22.03617 12.83544,-38.78222 32.9283,-38.78222 9.35667,0 14.79074,2.05127 21.11249,7.96517 3.74267,-6.7416 6.32175,-13.327261 11.43194,-18.989248"
   id="path103" /><path
   style="fill:#006890"
   inkscape:connector-curvature="0"
   d="m 662.20066,228.60163 c -23.17577,0 -41.32531,-5.57802 -56.40395,-20.87258 l 13.41123,-14.10699 c 10.88013,12.05572 25.68287,16.75805 42.71681,16.75805 22.59997,0 36.56301,-8.52897 36.56301,-25.56292 0,-12.6435 -6.98152,-19.69699 -22.89986,-21.16047 l -22.59997,-2.07527 c -26.79847,-2.35116 -41.03741,-14.98267 -41.03741,-38.78221 0,-26.450599 21.20846,-42.320957 50.52604,-42.320957 19.54105,0 37.1268,4.990226 49.42243,15.570465 l -13.12333,13.819092 c -9.77653,-7.94118 -22.33607,-11.467928 -36.575,-11.467928 -20.09286,0 -30.70909,9.116758 -30.70909,23.811538 0,12.34361 6.69362,19.685 24.00347,21.16048 l 22.04816,2.05127 c 24.02746,2.35116 40.48561,12.05571 40.48561,39.0941 0,27.91408 -22.61196,44.08433 -55.82815,44.08433"
   id="path105" /><path
   style="fill:#006890"
   inkscape:connector-curvature="0"
   d="m 784.76109,226.83826 c -23.45166,0 -35.18349,-17.34584 -35.18349,-38.80621 l 0,-88.744453 -17.30985,0 0,-16.170252 17.30985,0 0,-65.580689 20.10485,0 0,65.580689 29.31758,0 0,16.170252 -29.31758,0 0,88.168663 c 0,13.2193 5.86592,21.16047 18.70135,21.16047 l 10.61623,0 0,18.22153 -14.23894,0"
   id="path107" /><path
   style="fill:#a90432"
   inkscape:connector-curvature="0"
   d="M 4.1724e-5,231.7925 C 100.87219,151.64898 161.75055,132.26388 161.75055,132.26388 c 0,0 -17.82567,85.5176 58.58717,94.69433 0,0 -34.64368,13.2433 -112.59198,0.51582 0,0 -52.961172,-9.17674 -95.773954,2.02728 L 4.1724e-5,231.7925"
   id="path109" /><path
   style="fill:#00678f"
   inkscape:connector-curvature="0"
   d="M 0.14399056,220.36056 C 100.99214,140.20505 161.8825,120.79595 161.8825,120.79595 168.25223,78.007161 220.33772,0.0108856 220.33772,0.0108856 109.79701,66.491255 0.14399056,220.36056 0.14399056,220.36056"
   id="path111" />
</svg>