<svg width="93" height="34" viewBox="0 0 93 34" fill="none" xmlns="http://www.w3.org/2000/svg">
<mask id="mask0_82_135" style="mask-type:luminance" maskUnits="userSpaceOnUse" x="0" y="0" width="93" height="34">
<path d="M0 33.9995H93V1.91147e-05H0V33.9995Z" fill="white"/>
</mask>
<g mask="url(#mask0_82_135)">
<path d="M4.22513 16.9993L6.43536 15.073C6.63256 14.9285 6.68169 14.6876 6.68169 14.5439C6.82848 12.2805 7.17266 7.03161 9.48122 -0.000996234H4.91257C4.56912 -0.000996234 4.373 0.240875 4.32326 0.433732C4.32326 0.481904 1.57193 7.89787 1.42446 15.6512L0 16.9993L1.42446 18.3485C1.57193 26.1018 4.32326 33.5178 4.32326 33.566C4.373 33.7586 4.56912 33.9995 4.91257 33.9995H9.48122C7.17266 26.9679 6.82848 21.7192 6.68169 19.4556C6.68169 19.3109 6.63256 19.0712 6.43536 18.9256L4.22513 16.9993ZM36.1089 23.6466C36.1089 28.3171 32.9161 28.9907 28.4945 28.9907H24.5152V18.3002H27.7081C31.6874 18.3002 36.1089 18.7339 36.1089 23.6466ZM24.5152 14.254V5.00788H28.0522C31.0489 5.00788 34.2427 5.68246 34.2427 9.4387C34.2427 13.5813 31.1471 14.254 27.0199 14.254H24.5152ZM19.5529 0.91444V33.0852H28.7397C34.8321 33.0852 41.3657 31.7853 41.3657 23.6466C41.3657 19.5519 38.4181 16.5175 33.8496 15.8439C37.5344 14.9285 39.3023 12.425 39.3023 8.71595C39.3023 3.32254 34.7333 0.91444 29.2318 0.91444H19.5529ZM45.8852 7.75234C46.6715 9.29418 46.7698 12.8586 46.7698 15.3138V33.0852H51.7315V20.9001C51.7315 17.0475 52.2714 15.3138 53.157 14.014C54.2866 12.425 55.9567 11.5578 57.9219 11.5578C59.642 11.5578 60.8688 12.136 61.7044 13.0504C62.5893 14.014 62.9824 15.4103 62.9824 18.7339V33.0852H67.9447V17.7221C67.9447 13.3878 67.2074 11.3169 65.8313 9.77607C64.4079 8.1869 62.2943 7.27146 59.4935 7.27146C55.8574 7.27146 52.9596 8.71595 51.3886 11.3169C51.3886 9.72773 51.191 8.57244 50.848 7.75234H45.8852ZM79.2929 14.4957V5.15257H92.999V0.91444H74.232V33.0852H79.4401V18.7821H91.8204V14.4957H79.2929Z" fill="#231F20"/>
</g>
</svg>
