<svg width="120" height="24" viewBox="0 0 120 24" fill="none" xmlns="http://www.w3.org/2000/svg">
<g clip-path="url(#clip0_82_25)">
<path d="M54.5991 0.361049C61.217 -0.539479 67.0658 4.11794 67.8772 10.5389C68.6839 16.927 64.186 22.8086 57.7697 23.6481C51.3675 24.4877 45.4297 20.0507 44.5432 13.611C43.6708 7.29324 48.0468 1.2522 54.6038 0.356359L54.5991 0.361049ZM50.6218 16.5236C53.2295 19.6989 57.765 20.046 60.7996 17.5367C63.8342 15.0275 64.2751 10.5342 61.7892 7.48554C59.3034 4.43687 54.8477 3.91626 51.7334 6.3974C48.619 8.87854 48.0327 13.3671 50.6218 16.519V16.5236Z" fill="white"/>
<path d="M33.1273 23.2872L28.0665 17.5745L28.0384 23.2778H23.5498V0.722412L29.8582 0.755244C33.5963 0.774005 36.6403 3.73355 37.4283 7.16212C38.2913 10.9049 36.5981 14.6337 33.2023 16.4676L39.1074 23.2309L33.132 23.2872H33.1273ZM29.6424 12.9171C31.753 12.6966 33.193 10.8815 33.1179 8.94442C33.0429 7.00734 31.4951 5.22974 29.4877 5.22974H28.0524V12.9358L29.6377 12.9171H29.6424Z" fill="white"/>
<path d="M112.472 18.7423L120 18.7705V23.2731H107.965V0.722412H120V5.22974L112.477 5.23443L112.472 18.7423Z" fill="white"/>
<path d="M98.3309 17.5508C97.6274 21.6689 94.1425 23.9202 89.9494 23.5356L89.9307 18.986C91.183 19.305 92.393 18.8829 93.1716 17.9542C94.0018 16.9692 94.1613 15.6466 93.6078 14.413L92.0084 11.7208C90.1089 9.0005 90.0948 5.35618 92.243 2.75778C93.6547 1.05522 95.8122 0.346992 97.9228 0.417346V4.89184C96.7784 4.85432 95.9389 5.44529 95.4839 6.2567C94.9586 7.19944 94.9305 8.24068 95.5214 9.14121L96.9144 11.2518C98.1855 13.1701 98.7108 15.2761 98.3262 17.5508H98.3309Z" fill="white"/>
<path d="M12.204 23.2637L7.72484 23.2777L7.72953 13.5032L0 0.708252L4.90131 0.736393L12.204 13.4188V23.2637Z" fill="white"/>
<path d="M80.4283 23.259L75.9116 23.2731V0.727051H80.4236L80.4283 23.259Z" fill="white"/>
<path d="M19.9943 0.661429L16.7205 6.17716L13.4092 0.656738L19.9943 0.661429Z" fill="#2AA692"/>
<path d="M119.953 15.2338L114.466 11.9647L119.93 8.69092L119.953 15.2338Z" fill="#2AA692"/>
</g>
<defs>
<clipPath id="clip0_82_25">
<rect width="120" height="24" fill="white"/>
</clipPath>
</defs>
</svg>
