<svg width="133" height="39" viewBox="0 0 133 39" fill="none" xmlns="http://www.w3.org/2000/svg">
<g clip-path="url(#clip0_82_119)">
<path d="M66.7686 2.92139L68.418 6.66205L68.5298 6.95319C68.5957 6.71827 68.6197 6.65402 68.7095 6.43315L70.269 2.92139H71.2554L68.5298 8.75827H68.2482L65.5146 2.92139H66.7686Z" fill="#231F20"/>
<path d="M74.3921 2.92136V8.66187H75.5502V2.92136H74.3921Z" fill="#231F20"/>
<path d="M79.7017 2.90108H80.8578V7.8384H83.4376V8.6416H79.7017V2.90108Z" fill="#231F20"/>
<path d="M86.7124 2.90108H87.8705V7.8384H90.4504V8.6416H86.7124V2.90108Z" fill="#231F20"/>
<path d="M93.7251 2.89306H97.2993V3.68216H94.8792V5.27636H96.9998V6.06546H94.8792V7.86255H97.6388V8.6416H93.7251V2.89306Z" fill="#231F20"/>
<path d="M105.88 2.90112H107.935C108.476 2.90112 109.404 2.91719 110.117 3.61793C110.642 4.12994 110.934 4.96722 110.934 5.76435C110.934 6.55344 110.668 7.32647 110.117 7.88666C109.454 8.55328 108.719 8.64162 107.731 8.64162H105.88V2.90112ZM107.829 7.85454C108.314 7.85454 108.807 7.74812 109.149 7.39875C109.568 6.96706 109.712 6.35867 109.712 5.75631C109.712 4.83671 109.34 4.25242 108.953 3.98336C108.468 3.65006 107.829 3.65809 107.036 3.67415V7.85454H107.829Z" fill="#231F20"/>
<path d="M114.58 2.89306H118.156V3.68216H115.736V5.27636H117.856V6.06546H115.736V7.86255H118.495V8.6416H114.58V2.89306Z" fill="#231F20"/>
<path d="M52.3079 37.9686H39.4326V2.94336H51.8886C57.6513 2.94336 61.6469 6.43705 61.6469 12.29C61.6469 15.9805 59.5582 18.8818 56.7687 19.9641C59.9276 21.1929 62.16 24.0963 62.16 28.2787C62.16 34.6215 58.1625 37.9686 52.3079 37.9686ZM51.609 6.28847H42.9649V18.4381H51.609C55.2811 18.4381 58.1166 16.5206 58.1166 12.3382C58.1166 8.1578 55.2811 6.28847 51.609 6.28847ZM51.9824 21.7832H42.9649V34.6215H51.9824C56.0718 34.6215 58.6277 32.1157 58.6277 28.1803C58.6277 24.2449 56.0718 21.7832 51.9824 21.7832Z" fill="#231F20"/>
<path d="M82.5195 26.8009C82.5195 32.1158 84.8877 35.1637 89.2586 35.1637C91.9064 35.1637 93.4399 34.3285 95.251 32.4089L97.5293 34.5252C95.2051 36.9829 93.0685 38.2639 89.1648 38.2639C83.1225 38.2639 79.1729 34.4268 79.1729 25.8653C79.1729 18.0446 82.7491 13.4707 88.5597 13.4707C94.4623 13.4707 97.9486 17.9964 97.9486 25.1786V26.8009H82.5195ZM93.9051 20.1127C93.0226 17.896 90.9759 16.4705 88.5597 16.4705C86.1436 16.4705 84.0969 17.896 83.2163 20.1127C82.7052 21.4399 82.6113 22.1768 82.5195 24.1445H94.602C94.5082 22.1768 94.4163 21.4399 93.9051 20.1127Z" fill="#231F20"/>
<path d="M79.71 14.9545C78.2463 13.8642 77.1541 13.6514 75.2232 13.6514C72.5754 13.6514 70.0655 14.8802 68.8115 16.8981V13.9465H65.4629V38.1494H68.8115V23.2912C68.8115 19.6027 70.9481 16.7997 74.2927 16.7997C75.8502 16.7997 76.7547 17.1431 77.807 18.1329C78.43 17.0045 78.8593 15.9022 79.71 14.9545Z" fill="#231F20"/>
<path d="M110.229 38.2639C106.371 38.2639 103.35 37.3302 100.84 34.7702L103.072 32.4089C104.883 34.4268 107.347 35.2139 110.183 35.2139C113.945 35.2139 116.269 33.7863 116.269 30.9352C116.269 28.8189 115.107 27.6382 112.457 27.3933L108.695 27.0459C104.234 26.6524 101.864 24.5381 101.864 20.5545C101.864 16.1271 105.395 13.4707 110.275 13.4707C113.527 13.4707 116.455 14.306 118.501 16.0769L116.317 18.39C114.69 17.0608 112.599 16.4705 110.229 16.4705C106.884 16.4705 105.117 17.9964 105.117 20.4561C105.117 22.5222 106.231 23.751 109.113 23.998L112.783 24.3413C116.782 24.7349 119.522 26.3592 119.522 30.885C119.522 35.5573 115.758 38.2639 110.229 38.2639Z" fill="#231F20"/>
<path d="M130.63 37.9686C126.726 37.9686 124.773 35.0652 124.773 31.4732V16.6189H121.892V13.9123H124.773V2.9353H128.12V13.9123H133V16.6189H128.12V31.3768C128.12 33.5895 129.096 34.9187 131.233 34.9187H133V37.9686H130.63Z" fill="#231F20"/>
<path d="M0 38.798C16.791 25.3834 26.9247 22.1387 26.9247 22.1387C26.9247 22.1387 23.9575 36.4528 36.677 37.9888C36.677 37.9888 30.9103 40.2055 17.9351 38.0751C17.9351 38.0751 9.11933 36.5391 1.99279 38.4145L0 38.798Z" fill="#575757"/>
<path d="M0.0239258 36.8843C16.8109 23.4677 26.9466 20.219 26.9466 20.219C28.0069 13.0569 36.6769 0.00170898 36.6769 0.00170898C18.2766 11.1293 0.0239258 36.8843 0.0239258 36.8843Z" fill="#231F20"/>
</g>
<defs>
<clipPath id="clip0_82_119">
<rect width="133" height="39" fill="white"/>
</clipPath>
</defs>
</svg>
