<?xml version="1.0" encoding="UTF-8"?>
<svg id="Calque_2" data-name="Calque 2" xmlns="http://www.w3.org/2000/svg" viewBox="0 0 255.85 50.11">
  <defs>
    <style>
      .cls-1 {
        fill: #2aa692;
      }

      .cls-2 {
        fill: #030303;
      }
    </style>
  </defs>
  <g id="Calque_1-2" data-name="Calque 1">
    <path class="cls-2" d="M116.41.24c14.11-1.92,26.58,8.01,28.31,21.7,1.72,13.62-7.87,26.16-21.55,27.95-13.65,1.79-26.31-7.67-28.2-21.4-1.86-13.47,7.47-26.35,21.45-28.26ZM107.93,34.7c5.56,6.77,15.23,7.51,21.7,2.16s7.41-14.93,2.11-21.43-14.8-7.61-21.44-2.32-7.89,14.86-2.37,21.58Z"/>
    <path class="cls-2" d="M70.63,49.12l-10.79-12.18-.06,12.16h-9.57s0-48.09,0-48.09l13.45.07c7.97.04,14.46,6.35,16.14,13.66,1.84,7.98-1.77,15.93-9.01,19.84l12.59,14.42-12.74.12ZM63.2,27.01c4.5-.47,7.57-4.34,7.41-8.47s-3.46-7.92-7.74-7.92h-3.06s0,16.43,0,16.43l3.38-.04Z"/>
    <polygon class="cls-2" points="239.8 39.43 255.85 39.49 255.85 49.09 230.19 49.09 230.19 1.01 255.85 1.01 255.85 10.62 239.81 10.63 239.8 39.43"/>
    <path class="cls-2" d="M209.65,36.89c-1.5,8.78-8.93,13.58-17.87,12.76l-.04-9.7c2.67.68,5.25-.22,6.91-2.2,1.77-2.1,2.11-4.92.93-7.55l-3.41-5.74c-4.05-5.8-4.08-13.57.5-19.11,3.01-3.63,7.61-5.14,12.11-4.99v9.54c-2.44-.08-4.23,1.18-5.2,2.91-1.12,2.01-1.18,4.23.08,6.15l2.97,4.5c2.71,4.09,3.83,8.58,3.01,13.43Z"/>
    <polygon class="cls-2" points="26.02 49.07 16.47 49.1 16.48 28.26 0 .98 10.45 1.04 26.02 28.08 26.02 49.07"/>
    <polygon class="cls-2" points="171.48 49.06 161.85 49.09 161.85 1.02 171.47 1.02 171.48 49.06"/>
    <polygon class="cls-1" points="42.63 .88 35.65 12.64 28.59 .87 42.63 .88"/>
    <polygon class="cls-1" points="255.75 31.95 244.05 24.98 255.7 18 255.75 31.95"/>
  </g>
</svg>