<?xml version="1.0" encoding="UTF-8"?>
<svg id="Calque_1" xmlns="http://www.w3.org/2000/svg" version="1.1" viewBox="0 0 32 32">
  <!-- Generator: Adobe Illustrator 30.3.0, SVG Export Plug-In . SVG Version: 2.1.3 Build 182)  -->
  <defs>
    <style>
      .st0 {
        fill: #0f172a;
      }
    </style>
  </defs>
  <path class="st0" d="M7.8,4.4l1.8-1c.6-.4,1.4-.4,2-.3.7.2,1.3.6,1.6,1.3l9.9,17.1c0,0,0,.2,0,.3,0,2.2.1,4.4.2,6.6,0,.3-.2.6-.5.6-.1,0-.2,0-.3,0l-5.7-3.5c0,0-.1-.1-.2-.2L7.9,10.1l-1.2-2.1c-.4-.6-.4-1.4-.2-2,.2-.7.6-1.3,1.3-1.6h0ZM17,23.6v-.2c.1-.3.4-.4.7-.4l.9.2.2-.7-7.8-13.5-1.8,1,7.8,13.5ZM19.7,22l.7.2.3-.9c0-.3.4-.4.7-.4h.2s-7.8-13.4-7.8-13.4l-1.8,1,7.8,13.5h0ZM22.1,22.2h-.5c0-.1-.3.8-.3.8,0,.3-.4.5-.7.4l-.9-.2-.3.9c0,.3-.4.5-.7.4l-.9-.2v.5c-.1,0,2.1,1.4,2.1,1.4.3-.3.6-.6,1-.8h0c.4-.2.7-.4,1.1-.5v-2.6c0,0,0,0,0,0Z"/>
</svg>